PathFileType	4	(X/Y/Z)	C:\Users\Basilio\Documents\Thesis Gigler\squatting_fais\c3dfiles\058\SJ_pre4\markers_experimental.trc
DataRate	CameraRate	NumFrames	NumMarkers	Units	OrigDataRate	OrigDataStartFrame	OrigNumFrames
200.000000	200.000000	4	61	mm	200.000000	161	1290
Frame#	Time	FHD			LBHD			RBHD			C7			T10			CLAV			LSHO			LUUPA			LMUPA			LDUPA			LLEP			LMEP			LRAD			LUL			LRFIN			RSHO			RUPA1			RMUPA			RDUPA			RLEP			RMEP			RRAD			RUL			RUFIN			LASI			RASI			USACR			LSACR			RSACR			LTHI1			LTHI2			LTHI3			LTHI4			LLFC			LMFC			LTIB1			LTIB2			LTIB3			LTIB4			LLMAL			LMMAL			LHEE			LMT1			LMT2			LMT5			RTHI			RTHI2			RTHI3			RTHI4			RLFC			RMFC			RTIB1			RTIB2			RTIB3			RTIB4			RLMAL			RMMAL			RHEE			RMT1			RMT2			RMT5			
		X1	Y1	Z1	X2	Y2	Z2	X3	Y3	Z3	X4	Y4	Z4	X5	Y5	Z5	X6	Y6	Z6	X7	Y7	Z7	X8	Y8	Z8	X9	Y9	Z9	X10	Y10	Z10	X11	Y11	Z11	X12	Y12	Z12	X13	Y13	Z13	X14	Y14	Z14	X15	Y15	Z15	X16	Y16	Z16	X17	Y17	Z17	X18	Y18	Z18	X19	Y19	Z19	X20	Y20	Z20	X21	Y21	Z21	X22	Y22	Z22	X23	Y23	Z23	X24	Y24	Z24	X25	Y25	Z25	X26	Y26	Z26	X27	Y27	Z27	X28	Y28	Z28	X29	Y29	Z29	X30	Y30	Z30	X31	Y31	Z31	X32	Y32	Z32	X33	Y33	Z33	X34	Y34	Z34	X35	Y35	Z35	X36	Y36	Z36	X37	Y37	Z37	X38	Y38	Z38	X39	Y39	Z39	X40	Y40	Z40	X41	Y41	Z41	X42	Y42	Z42	X43	Y43	Z43	X44	Y44	Z44	X45	Y45	Z45	X46	Y46	Z46	X47	Y47	Z47	X48	Y48	Z48	X49	Y49	Z49	X50	Y50	Z50	X51	Y51	Z51	X52	Y52	Z52	X53	Y53	Z53	X54	Y54	Z54	X55	Y55	Z55	X56	Y56	Z56	X57	Y57	Z57	X58	Y58	Z58	X59	Y59	Z59	X60	Y60	Z60	X61	Y61	Z61	

162	0.805	11.64288997650147	1623.40478515625	-789.6956787109377	-135.99072265625	1703.479370117188	-857.0899047851565	22.17525863647461	1626.113403320313	-932.4930419921877	-257.9610290527344	1563.244140625	-881.0574951171877	-383.3790893554688	1265.7822265625	-877.1944580078127	-137.4552459716797	1445.4013671875	-868.3723754882815	-124.2620620727539	1514.401000976563	-1034.473876953125	-284.1335144042969	1451.9716796875	-1200.386352539063	-268.4807434082032	1403.8583984375	-1207.893676757813	-322.0749816894532	1404.69482421875	-1236.5498046875	-375.5703125000001	1344.55810546875	-1268.840454101563	-430.0252075195314	1356.5400390625	-1217.513793945313	-392.8610229492189	1147.485229492188	-1077.6630859375	-318.6917724609376	1146.360107421875	-1069.098876953125	-374.3752136230469	1092.402954101563	-1134.80126953125	-151.7396697998047	1519.972778320313	-698.9439086914064	-320.4672851562501	1444.560546875	-550.1553344726564	-303.1499633789063	1397.361450195313	-547.8558349609376	-353.6158142089844	1391.772705078125	-516.0089721679689	-401.8037109375001	1345.102905273438	-489.8536071777345	-461.8017578125001	1339.283935546875	-557.1565551757814	-342.9901123046876	1148.040161132813	-661.4651489257814	-337.4550476074219	1096.255126953125	-599.9771118164064	-280.0750427246094	1108.441772460938	-688.8901367187501	-272.6763916015626	1017.47314453125	-1000.304382324219	-264.5791015625001	1014.566284179688	-767.3447265625001	-429.2603454589845	1150.794067382813	-865.7103271484377	-446.0880432128907	1122.209350585938	-892.6303710937502	-442.9188537597657	1122.03369140625	-835.3135986328127	-320.6489868164063	773.3138427734377	-1115.202514648438	-283.8700866699219	696.8783569335939	-1125.2412109375	-237.7763671875001	697.2104492187501	-1102.448974609375	-308.1384887695313	641.4251098632814	-1121.459228515625	-297.5796813964844	544.5162353515626	-1127.353515625	-262.6733093261719	519.0772094726564	-1008.291015625	-247.1672363281251	403.2302856445314	-1116.798950195313	-310.8734436035157	381.6389160156251	-1170.248901367188	-271.8419494628907	367.1948547363282	-1153.66552734375	-279.5317382812501	282.0372009277344	-1140.126098632813	-361.0632324218751	93.77677154541017	-1171.371826171875	-332.2438354492188	100.5978546142578	-1084.567260742188	-423.7474060058595	50.79714202880861	-1121.487548828125	-196.8862915039063	67.15664672851564	-1115.685791015625	-196.975570678711	64.95557403564455	-1162.648071289063	-244.0118865966797	36.45624923706055	-1213.453369140625	-364.8232727050782	839.0835571289065	-669.7182617187501	-320.6205139160157	789.906433105469	-659.5358276367189	-287.7004089355469	792.8356933593752	-662.9508666992189	-337.3663940429688	707.4722900390626	-670.2384643554689	-308.5825805664063	533.7346801757814	-663.1820068359376	-279.1333007812501	506.0953979492189	-792.0293579101565	-269.3992919921876	321.7935485839844	-721.1787109375001	-308.4456176757813	255.7731475830079	-641.7098388671876	-276.6039733886719	243.3834075927735	-675.1798706054689	-290.2658081054688	195.0750427246094	-702.8981323242189	-351.9318847656251	93.68856048583986	-645.8233032226564	-323.8128967285157	104.9325714111328	-736.7350463867189	-415.4387207031251	49.32043075561525	-703.8007202148439	-196.7236938476563	57.90938568115236	-705.5861206054689	-193.7706909179688	61.08103179931642	-654.4008178710939	-238.1661071777344	25.64238357543946	-600.4736938476564	
163	0.8100000000000001	10.83552360534668	1625.088500976563	-789.0450439453127	-138.0537567138672	1703.879638671875	-856.0998535156252	21.75323867797852	1628.371826171875	-931.886169433594	-258.1957092285157	1563.362426757813	-880.5417480468752	-383.1222534179688	1265.886352539063	-876.686218261719	-137.5642852783203	1445.552856445313	-867.9707031250002	-124.4820938110352	1514.733276367188	-1033.968017578125	-284.6468200683594	1452.168090820313	-1199.664916992188	-268.8182067871094	1404.238891601563	-1207.37158203125	-322.5838623046876	1404.882202148438	-1235.989135742188	-375.8867492675782	1344.7294921875	-1268.32861328125	-430.3498840332032	1356.644287109375	-1216.668334960938	-392.7915344238282	1147.563598632813	-1077.124267578125	-318.7591857910157	1146.451293945313	-1068.719482421875	-374.2729797363282	1092.565307617188	-1134.2314453125	-151.6138305664063	1520.115844726563	-698.3965454101564	-319.9166870117188	1444.403564453125	-549.5322875976564	-302.5028991699219	1397.079956054688	-547.4989013671876	-352.9990844726563	1391.378540039063	-515.4904174804689	-401.3613891601564	1344.909057617188	-489.4017639160157	-461.3117675781251	1338.953979492188	-556.3886718750001	-342.6746215820313	1147.93212890625	-661.0949096679689	-336.8827819824219	1096.076904296875	-599.6141967773439	-279.8272094726563	1108.425659179688	-688.6450805664064	-272.3422851562501	1017.529418945313	-999.9277343750002	-264.1708984375001	1014.640319824219	-766.9143066406251	-428.9269409179689	1150.962158203125	-865.3625488281252	-445.8677978515626	1122.293701171875	-892.2915649414065	-442.7315979003907	1121.97412109375	-834.767028808594	-320.6112365722657	773.5761718750002	-1115.057983398438	-283.8693542480469	697.0654907226564	-1125.210815429688	-237.8963775634766	697.4874877929689	-1102.396850585938	-308.1581726074219	641.5645751953126	-1121.508422851563	-297.6428222656251	544.7238769531251	-1127.441284179688	-262.5868835449219	519.1896362304689	-1008.397399902344	-247.1081542968751	403.2145996093751	-1116.986206054688	-311.1161804199219	381.8148803710938	-1170.3251953125	-272.0525207519532	367.3237915039063	-1153.887329101563	-279.6233215332032	282.2516174316407	-1140.32861328125	-361.1911315917969	93.86743164062501	-1171.339111328125	-332.2240295410157	100.8811264038086	-1084.67724609375	-423.8562316894532	50.89268875122072	-1121.437255859375	-196.8464965820313	67.36042785644533	-1115.880126953125	-197.0229797363282	65.0519256591797	-1162.835571289063	-244.121810913086	36.38578414916993	-1213.562377929688	-365.0891418457032	839.1407470703127	-669.4444580078126	-320.6346130371094	789.8680419921877	-659.1925659179689	-287.7914733886719	792.670104980469	-662.5207519531251	-337.3750000000001	707.4303588867189	-669.9840087890626	-308.3843383789063	533.6500244140626	-663.0177612304689	-278.6257629394532	506.1897277832032	-791.6997680664065	-269.2987670898438	321.7965698242188	-720.9627685546876	-308.3999633789063	255.8293609619141	-641.5213012695314	-276.5447692871094	243.323471069336	-674.9739990234376	-290.1813659667969	195.0492706298829	-702.7169799804689	-351.8746337890626	93.69252777099611	-645.7796020507814	-323.7801208496094	104.9483184814453	-736.6697998046876	-415.4381408691407	49.33943557739259	-703.7561645507814	-195.196762084961	57.84201049804689	-705.1035156250001	-193.7337493896485	61.0731773376465	-654.3934326171876	-238.138656616211	25.66044616699219	-600.4575805664064	
164	0.8150000000000001	10.40114688873291	1627.173095703125	-788.4532470703127	-139.0297546386719	1704.078857421875	-855.7588500976565	21.06275939941407	1630.628173828125	-931.2878417968752	-258.5336608886719	1563.286010742188	-879.8366699218752	-382.9273681640626	1265.866821289063	-876.1641845703127	-137.6882781982422	1446.086791992188	-867.4751586914065	-124.7547683715821	1515.005981445313	-1033.54296875	-285.2940063476563	1452.38525390625	-1199.05810546875	-269.3434143066407	1404.4384765625	-1206.87060546875	-323.1757202148438	1405.111206054688	-1235.31591796875	-376.1110534667969	1344.899169921875	-1267.677124023438	-430.7435302734376	1356.607788085938	-1215.920776367188	-392.6618957519532	1147.638061523438	-1076.731079101563	-318.6905517578126	1146.516967773438	-1068.349243164063	-374.2950134277344	1092.590942382813	-1133.6953125	-151.5203247070313	1520.115844726563	-697.9224243164064	-319.6506042480469	1444.2392578125	-549.0261230468751	-302.2330932617188	1396.81982421875	-546.9194335937501	-352.6712341308594	1390.987426757813	-514.7922973632814	-400.9586181640626	1344.447875976563	-488.8974609375001	-460.8919677734376	1338.839477539063	-555.8084106445314	-342.4540710449219	1147.849365234375	-660.8553466796876	-335.8336791992188	1095.996826171875	-599.4328002929689	-279.4226074218751	1108.281982421875	-688.4141235351564	-272.0527648925782	1017.65771484375	-999.496032714844	-263.9456481933594	1014.6796875	-766.5124511718751	-428.7574768066407	1150.978759765625	-864.8274536132815	-445.6910400390626	1122.413818359375	-891.965759277344	-442.6730346679689	1121.973999023438	-834.4234008789065	-320.4928283691407	773.746520996094	-1114.891479492188	-283.6828002929688	697.1763916015626	-1125.241455078125	-237.9656372070313	697.6366577148439	-1102.2958984375	-308.0233764648438	641.7570190429689	-1121.566528320313	-297.6115417480469	544.8500366210939	-1127.481811523438	-262.2357177734376	519.6947021484376	-1008.550598144531	-247.1308135986329	403.2473754882814	-1117.207153320313	-311.2981262207032	382.0083007812501	-1170.425903320313	-272.1800231933594	367.4395751953126	-1154.065673828125	-279.7046813964844	282.3781433105469	-1140.452392578125	-361.3120727539063	94.02335357666017	-1171.290283203125	-332.1835632324219	100.9947128295899	-1084.705810546875	-423.2180175781251	50.56269454956056	-1121.561889648438	-196.8475036621094	67.54265594482423	-1116.093505859375	-197.0892486572266	65.03994750976564	-1163.025268554688	-244.177230834961	36.36677551269532	-1213.666137695313	-365.1494445800782	839.089050292969	-669.2130126953126	-320.8072204589844	789.835144042969	-658.8596191406251	-287.7684326171876	792.5065917968752	-662.1102905273439	-337.2813415527344	707.4503784179689	-669.8366699218751	-308.2441711425782	533.6292724609376	-662.8140258789064	-278.0679321289063	506.2845153808595	-791.4304809570315	-269.1430358886719	321.7823486328126	-720.8425292968751	-308.3358459472657	255.8353881835938	-641.3958129882814	-276.3577880859376	243.4471588134766	-674.9528198242189	-290.1149291992188	195.075180053711	-702.6196289062501	-351.8573608398438	93.68154907226564	-645.7725830078126	-323.7102966308594	104.9542846679688	-736.6726684570314	-415.4124145507814	49.30847549438478	-703.7980957031251	-196.7156066894532	57.9337615966797	-705.5233154296876	-193.726303100586	61.04850006103517	-654.3839111328126	-238.1329193115235	25.61080551147462	-600.4869995117189	
165	0.8200000000000001	9.83294200897217	1629.237182617188	-787.7851562500002	-141.1012420654297	1704.114379882813	-855.047058105469	20.14226150512696	1632.74658203125	-930.6873779296877	-258.6284484863282	1563.286010742188	-879.2462158203127	-382.6234436035157	1265.8603515625	-875.8088989257815	-137.5382537841797	1446.166259765625	-867.1638183593752	-125.0055389404297	1515.287109375	-1033.225952148438	-285.5980529785157	1452.7705078125	-1198.491577148438	-269.7804565429688	1404.580444335938	-1206.405029296875	-323.7005004882813	1405.39404296875	-1234.742919921875	-376.6810913085938	1345.012817382813	-1267.011352539063	-431.1349182128907	1356.680908203125	-1215.252685546875	-392.608856201172	1147.610107421875	-1076.151245117188	-318.4989318847657	1146.581787109375	-1068.000366210938	-374.3327636718751	1092.567749023438	-1133.263916015625	-151.4346313476563	1520.134643554688	-697.4245605468751	-319.3079528808594	1443.939575195313	-548.3292236328126	-301.8278198242188	1396.5859375	-546.5114135742189	-352.1455078125001	1390.666259765625	-514.5640869140626	-400.4480285644532	1344.158813476563	-488.378875732422	-460.6521301269532	1338.533081054688	-555.2254028320314	-342.0064697265626	1147.732177734375	-660.4304809570314	-335.2599792480469	1095.8984375	-599.1829833984376	-279.0206909179688	1108.235717773438	-688.2345581054689	-271.8868713378907	1017.641784667969	-999.1520996093752	-263.6999511718751	1014.604125976563	-766.0614624023439	-428.6822204589845	1151.00830078125	-864.3755493164065	-445.5467834472657	1122.400512695313	-891.5881958007815	-442.5128173828126	1121.960815429688	-834.0880126953127	-320.2233886718751	773.9099731445315	-1114.74755859375	-283.5278625488282	697.3320922851564	-1125.249389648438	-237.6805572509766	697.7336425781251	-1102.290649414063	-307.8842773437501	642.0238037109376	-1121.55615234375	-297.5137634277344	544.9418334960939	-1127.552368164063	-262.3124084472657	519.3508300781251	-1008.019165039063	-247.1608276367188	403.4803466796876	-1117.529907226563	-311.3411254882813	382.1459045410157	-1170.487426757813	-272.2702331542969	367.5277709960938	-1154.233520507813	-279.7940673828126	282.4416503906251	-1140.594970703125	-361.3448791503907	94.12759399414064	-1171.192138671875	-332.1739501953126	101.0228118896485	-1084.72314453125	-423.827850341797	50.93808746337892	-1121.224975585938	-196.8700408935547	67.6376419067383	-1116.2705078125	-197.1177520751954	65.13858795166017	-1163.182495117188	-244.2800750732422	36.31124114990235	-1213.771606445313	-365.1930541992188	838.9688720703127	-669.0122680664064	-320.9028625488282	789.6250000000002	-658.6066894531251	-287.7382812500001	792.5017700195315	-661.6690063476564	-337.2575073242188	707.3821411132814	-669.6672973632814	-307.9690856933594	533.5454101562501	-662.6322631835939	-277.5693054199219	506.4417114257814	-791.173278808594	-268.9727783203126	321.7179565429688	-720.7184448242189	-308.0997009277344	255.9563446044922	-641.2876586914064	-276.1304321289063	243.4862823486329	-674.9013671875001	-290.0867919921876	195.0523834228516	-702.5612182617189	-351.8443298339844	93.71264648437501	-645.7454223632814	-323.6171569824219	104.9669876098633	-736.6397094726564	-415.4173583984376	49.34593200683595	-703.8344726562501	-196.6783752441407	57.94313049316408	-705.5059814453126	-193.7221221923829	61.07120895385744	-654.2975463867189	-238.1635131835938	25.59528923034669	-600.4435424804689	
